<svg width="55" height="51" viewBox="0 0 55 51" fill="none" xmlns="http://www.w3.org/2000/svg">
<rect width="55" height="51" rx="15" fill="#06B293"/>
<path d="M17.35 18.75C17.35 17.225 17.9611 15.7625 19.0488 14.6841C20.1365 13.6058 21.6117 13 23.15 13C24.6883 13 26.1635 13.6058 27.2512 14.6841C28.3389 15.7625 28.95 17.225 28.95 18.75C28.95 20.275 28.3389 21.7375 27.2512 22.8159C26.1635 23.8942 24.6883 24.5 23.15 24.5C21.6117 24.5 20.1365 23.8942 19.0488 22.8159C17.9611 21.7375 17.35 20.275 17.35 18.75ZM13 34.6658C13 30.241 16.6159 26.6562 21.0792 26.6562H25.2208C29.6841 26.6562 33.3 30.241 33.3 34.6658C33.3 35.4025 32.6973 36 31.9542 36H14.3458C13.6027 36 13 35.4025 13 34.6658ZM40.6089 36H34.3648C34.6095 35.5777 34.7545 35.0881 34.7545 34.5625V34.2031C34.7545 31.4764 33.5266 29.0281 31.5917 27.384C31.7005 27.3795 31.8047 27.375 31.9134 27.375H34.6956C38.7284 27.375 42 30.6184 42 34.6209C42 35.3846 41.3747 36 40.6089 36ZM32.575 24.5C31.1703 24.5 29.9016 23.934 28.9817 23.0221C29.8744 21.8271 30.4 20.3492 30.4 18.75C30.4 17.5461 30.1009 16.4096 29.5708 15.4123C30.4136 14.8014 31.4513 14.4375 32.575 14.4375C35.3798 14.4375 37.65 16.6881 37.65 19.4688C37.65 22.2494 35.3798 24.5 32.575 24.5Z" fill="white"/>
</svg>
