<svg width="36" height="36" viewBox="0 0 36 36" fill="none" xmlns="http://www.w3.org/2000/svg">
<circle cx="18" cy="18" r="18" fill="#D2055F"/>
<path d="M13.8571 8C14.5288 8 15.0714 8.53066 15.0714 9.1875V10.375H19.9286V9.1875C19.9286 8.53066 20.4712 8 21.1429 8C21.8145 8 22.3571 8.53066 22.3571 9.1875V10.375H24.1786C25.1842 10.375 26 11.1729 26 12.1562V13.9375H9V12.1562C9 11.1729 9.81585 10.375 10.8214 10.375H12.6429V9.1875C12.6429 8.53066 13.1855 8 13.8571 8ZM9 15.125H26V25.2188C26 26.2021 25.1842 27 24.1786 27H10.8214C9.81585 27 9 26.2021 9 25.2188V15.125ZM11.4286 18.0938V19.2812C11.4286 19.6078 11.7018 19.875 12.0357 19.875H13.25C13.5839 19.875 13.8571 19.6078 13.8571 19.2812V18.0938C13.8571 17.7672 13.5839 17.5 13.25 17.5H12.0357C11.7018 17.5 11.4286 17.7672 11.4286 18.0938ZM16.2857 18.0938V19.2812C16.2857 19.6078 16.5589 19.875 16.8929 19.875H18.1071C18.4411 19.875 18.7143 19.6078 18.7143 19.2812V18.0938C18.7143 17.7672 18.4411 17.5 18.1071 17.5H16.8929C16.5589 17.5 16.2857 17.7672 16.2857 18.0938ZM21.75 17.5C21.4161 17.5 21.1429 17.7672 21.1429 18.0938V19.2812C21.1429 19.6078 21.4161 19.875 21.75 19.875H22.9643C23.2982 19.875 23.5714 19.6078 23.5714 19.2812V18.0938C23.5714 17.7672 23.2982 17.5 22.9643 17.5H21.75ZM11.4286 22.8438V24.0312C11.4286 24.3578 11.7018 24.625 12.0357 24.625H13.25C13.5839 24.625 13.8571 24.3578 13.8571 24.0312V22.8438C13.8571 22.5172 13.5839 22.25 13.25 22.25H12.0357C11.7018 22.25 11.4286 22.5172 11.4286 22.8438ZM16.8929 22.25C16.5589 22.25 16.2857 22.5172 16.2857 22.8438V24.0312C16.2857 24.3578 16.5589 24.625 16.8929 24.625H18.1071C18.4411 24.625 18.7143 24.3578 18.7143 24.0312V22.8438C18.7143 22.5172 18.4411 22.25 18.1071 22.25H16.8929ZM21.1429 22.8438V24.0312C21.1429 24.3578 21.4161 24.625 21.75 24.625H22.9643C23.2982 24.625 23.5714 24.3578 23.5714 24.0312V22.8438C23.5714 22.5172 23.2982 22.25 22.9643 22.25H21.75C21.4161 22.25 21.1429 22.5172 21.1429 22.8438Z" fill="white"/>
</svg>
